<svg width="720" height="720" xmlns="http://www.w3.org/2000/svg" xmlns:xlink="http://www.w3.org/1999/xlink" overflow="hidden"><defs><clipPath id="clip0"><rect x="0" y="0" width="720" height="720"/></clipPath><linearGradient x1="-9.77766e-14" y1="720" x2="720" y2="-4.88883e-14" gradientUnits="userSpaceOnUse" spreadMethod="reflect" id="fill1"><stop offset="0" stop-color="#FF128D"/><stop offset="0.00578035" stop-color="#FF138C"/><stop offset="0.0115607" stop-color="#FF158C"/><stop offset="0.017341" stop-color="#FF178C"/><stop offset="0.0231214" stop-color="#FF198C"/><stop offset="0.0289017" stop-color="#FF1B8C"/><stop offset="0.0346821" stop-color="#FF1D8C"/><stop offset="0.0404624" stop-color="#FF1E8C"/><stop offset="0.0462428" stop-color="#FF208C"/><stop offset="0.0520231" stop-color="#FF228C"/><stop offset="0.0578035" stop-color="#FF248C"/><stop offset="0.0635838" stop-color="#FF268C"/><stop offset="0.0693642" stop-color="#FF278C"/><stop offset="0.0751445" stop-color="#FF298B"/><stop offset="0.0809249" stop-color="#FF2B8B"/><stop offset="0.0867052" stop-color="#FF2D8B"/><stop offset="0.0924855" stop-color="#FF2E8B"/><stop offset="0.0982659" stop-color="#FF308B"/><stop offset="0.104046" stop-color="#FF328A"/><stop offset="0.109827" stop-color="#FF348A"/><stop offset="0.115607" stop-color="#FF358A"/><stop offset="0.121387" stop-color="#FF378A"/><stop offset="0.127168" stop-color="#FF398A"/><stop offset="0.132948" stop-color="#FF3A89"/><stop offset="0.138728" stop-color="#FF3C89"/><stop offset="0.144509" stop-color="#FF3E89"/><stop offset="0.150289" stop-color="#FF3F88"/><stop offset="0.156069" stop-color="#FF4188"/><stop offset="0.16185" stop-color="#FF4388"/><stop offset="0.16763" stop-color="#FF4488"/><stop offset="0.17341" stop-color="#FF4687"/><stop offset="0.179191" stop-color="#FF4787"/><stop offset="0.184971" stop-color="#FF4987"/><stop offset="0.190751" stop-color="#FF4A86"/><stop offset="0.196532" stop-color="#FF4C86"/><stop offset="0.202312" stop-color="#FF4E85"/><stop offset="0.208092" stop-color="#FF4F85"/><stop offset="0.213873" stop-color="#FF5185"/><stop offset="0.219653" stop-color="#FF5284"/><stop offset="0.225434" stop-color="#FF5484"/><stop offset="0.231214" stop-color="#FF5583"/><stop offset="0.236994" stop-color="#FF5783"/><stop offset="0.242775" stop-color="#FF5883"/><stop offset="0.248555" stop-color="#FF5A82"/><stop offset="0.254335" stop-color="#FF5B82"/><stop offset="0.260116" stop-color="#FF5D81"/><stop offset="0.265896" stop-color="#FF5E81"/><stop offset="0.271676" stop-color="#FF5F80"/><stop offset="0.277457" stop-color="#FF6180"/><stop offset="0.283237" stop-color="#FF627F"/><stop offset="0.289017" stop-color="#FF647F"/><stop offset="0.294798" stop-color="#FF657E"/><stop offset="0.300578" stop-color="#FF667E"/><stop offset="0.306358" stop-color="#FF687D"/><stop offset="0.312139" stop-color="#FF697D"/><stop offset="0.317919" stop-color="#FF6B7C"/><stop offset="0.323699" stop-color="#FF6C7B"/><stop offset="0.32948" stop-color="#FF6D7B"/><stop offset="0.33526" stop-color="#FF6F7A"/><stop offset="0.34104" stop-color="#FF707A"/><stop offset="0.346821" stop-color="#FF7179"/><stop offset="0.352601" stop-color="#FF7279"/><stop offset="0.358382" stop-color="#FF7478"/><stop offset="0.364162" stop-color="#FF7577"/><stop offset="0.369942" stop-color="#FF7677"/><stop offset="0.375723" stop-color="#FF7876"/><stop offset="0.381503" stop-color="#FF7975"/><stop offset="0.387283" stop-color="#FF7A75"/><stop offset="0.393064" stop-color="#FF7B74"/><stop offset="0.398844" stop-color="#FF7C73"/><stop offset="0.404624" stop-color="#FF7E73"/><stop offset="0.410405" stop-color="#FF7F72"/><stop offset="0.416185" stop-color="#FF8071"/><stop offset="0.421965" stop-color="#FF8171"/><stop offset="0.427746" stop-color="#FF8270"/><stop offset="0.433526" stop-color="#FF846F"/><stop offset="0.439306" stop-color="#FF856E"/><stop offset="0.445087" stop-color="#FF866E"/><stop offset="0.450867" stop-color="#FF876D"/><stop offset="0.456647" stop-color="#FF886C"/><stop offset="0.462428" stop-color="#FF896B"/><stop offset="0.468208" stop-color="#FF8A6B"/><stop offset="0.473988" stop-color="#FF8B6A"/><stop offset="0.479769" stop-color="#FF8C69"/><stop offset="0.485549" stop-color="#FF8D68"/><stop offset="0.491329" stop-color="#FF8F67"/><stop offset="0.49711" stop-color="#FF9066"/><stop offset="0.50289" stop-color="#FF9166"/><stop offset="0.508671" stop-color="#FF9265"/><stop offset="0.514451" stop-color="#FF9364"/><stop offset="0.520231" stop-color="#FF9463"/><stop offset="0.526012" stop-color="#FF9562"/><stop offset="0.531792" stop-color="#FF9661"/><stop offset="0.537572" stop-color="#FF9760"/><stop offset="0.543353" stop-color="#FF9760"/><stop offset="0.549133" stop-color="#FF985F"/><stop offset="0.554913" stop-color="#FF995E"/><stop offset="0.560694" stop-color="#FF9A5D"/><stop offset="0.566474" stop-color="#FF9B5C"/><stop offset="0.572254" stop-color="#FF9C5B"/><stop offset="0.578035" stop-color="#FF9D5A"/><stop offset="0.583815" stop-color="#FF9E59"/><stop offset="0.589595" stop-color="#FF9F58"/><stop offset="0.595376" stop-color="#FFA057"/><stop offset="0.601156" stop-color="#FFA056"/><stop offset="0.606936" stop-color="#FFA155"/><stop offset="0.612717" stop-color="#FFA254"/><stop offset="0.618497" stop-color="#FFA353"/><stop offset="0.624277" stop-color="#FFA452"/><stop offset="0.630058" stop-color="#FFA551"/><stop offset="0.635838" stop-color="#FFA550"/><stop offset="0.641618" stop-color="#FFA64F"/><stop offset="0.647399" stop-color="#FFA74E"/><stop offset="0.653179" stop-color="#FFA84D"/><stop offset="0.65896" stop-color="#FFA84C"/><stop offset="0.66474" stop-color="#FFA94B"/><stop offset="0.67052" stop-color="#FFAA4A"/><stop offset="0.676301" stop-color="#FFAB49"/><stop offset="0.682081" stop-color="#FFAB48"/><stop offset="0.687861" stop-color="#FFAC47"/><stop offset="0.693642" stop-color="#FFAD45"/><stop offset="0.699422" stop-color="#FFAD44"/><stop offset="0.705202" stop-color="#FFAE43"/><stop offset="0.710983" stop-color="#FFAF42"/><stop offset="0.716763" stop-color="#FFAF41"/><stop offset="0.722543" stop-color="#FFB040"/><stop offset="0.728324" stop-color="#FFB03F"/><stop offset="0.734104" stop-color="#FFB13E"/><stop offset="0.739884" stop-color="#FFB23C"/><stop offset="0.745665" stop-color="#FFB23B"/><stop offset="0.751445" stop-color="#FFB33A"/><stop offset="0.757225" stop-color="#FFB339"/><stop offset="0.763006" stop-color="#FFB438"/><stop offset="0.768786" stop-color="#FFB436"/><stop offset="0.774566" stop-color="#FFB535"/><stop offset="0.780347" stop-color="#FFB534"/><stop offset="0.786127" stop-color="#FFB633"/><stop offset="0.791907" stop-color="#FFB631"/><stop offset="0.797688" stop-color="#FFB730"/><stop offset="0.803468" stop-color="#FFB72F"/><stop offset="0.809249" stop-color="#FFB82E"/><stop offset="0.815029" stop-color="#FFB82C"/><stop offset="0.820809" stop-color="#FFB92B"/><stop offset="0.82659" stop-color="#FFB92A"/><stop offset="0.83237" stop-color="#FFB929"/><stop offset="0.83815" stop-color="#FFBA27"/><stop offset="0.843931" stop-color="#FFBA26"/><stop offset="0.849711" stop-color="#FFBB25"/><stop offset="0.855491" stop-color="#FFBB23"/><stop offset="0.861272" stop-color="#FFBB22"/><stop offset="0.867052" stop-color="#FFBC21"/><stop offset="0.872832" stop-color="#FFBC1F"/><stop offset="0.878613" stop-color="#FFBC1E"/><stop offset="0.884393" stop-color="#FFBC1D"/><stop offset="0.890173" stop-color="#FFBD1B"/><stop offset="0.895954" stop-color="#FFBD1A"/><stop offset="0.901734" stop-color="#FFBD18"/><stop offset="0.907514" stop-color="#FFBD17"/><stop offset="0.913295" stop-color="#FFBE16"/><stop offset="0.919075" stop-color="#FFBE14"/><stop offset="0.924855" stop-color="#FFBE13"/><stop offset="0.930636" stop-color="#FFBE11"/><stop offset="0.936416" stop-color="#FFBF10"/><stop offset="0.942197" stop-color="#FFBF0E"/><stop offset="0.947977" stop-color="#FFBF0D"/><stop offset="0.953757" stop-color="#FFBF0B"/><stop offset="0.959538" stop-color="#FFBF0A"/><stop offset="0.965318" stop-color="#FFBF09"/><stop offset="0.971098" stop-color="#FFBF07"/><stop offset="0.976879" stop-color="#FFBF06"/><stop offset="0.982659" stop-color="#FFBF04"/><stop offset="0.988439" stop-color="#FFBF03"/><stop offset="0.99422" stop-color="#FFBF01"/><stop offset="1" stop-color="#FFC000"/></linearGradient><clipPath id="clip2"><rect x="45" y="-17" width="837" height="1610"/></clipPath><clipPath id="clip3"><rect x="45" y="-17" width="837" height="1610"/></clipPath><clipPath id="clip4"><rect x="45" y="-17" width="837" height="1610"/></clipPath><clipPath id="clip5"><rect x="45" y="-17" width="837" height="1610"/></clipPath><linearGradient x1="2765.13" y1="841.286" x2="2765.13" y2="1358.85" gradientUnits="userSpaceOnUse" spreadMethod="reflect" id="fill6"><stop offset="0" stop-color="#0EAAA6"/><stop offset="0.0147059" stop-color="#0DABA7"/><stop offset="0.0294118" stop-color="#0DACA9"/><stop offset="0.0441176" stop-color="#0DAEAB"/><stop offset="0.0588235" stop-color="#0DAFAD"/><stop offset="0.0735294" stop-color="#0DB1AF"/><stop offset="0.0882353" stop-color="#0DB2B0"/><stop offset="0.102941" stop-color="#0DB3B2"/><stop offset="0.117647" stop-color="#0DB5B4"/><stop offset="0.132353" stop-color="#0DB6B6"/><stop offset="0.147059" stop-color="#0DB7B7"/><stop offset="0.161765" stop-color="#0DB9B9"/><stop offset="0.176471" stop-color="#0DBABB"/><stop offset="0.191176" stop-color="#0DBBBC"/><stop offset="0.205882" stop-color="#0DBCBE"/><stop offset="0.220588" stop-color="#0DBEBF"/><stop offset="0.235294" stop-color="#0DBFC1"/><stop offset="0.25" stop-color="#0DC0C2"/><stop offset="0.264706" stop-color="#0DC1C4"/><stop offset="0.279412" stop-color="#0DC2C5"/><stop offset="0.294118" stop-color="#0DC3C7"/><stop offset="0.308824" stop-color="#0DC4C8"/><stop offset="0.323529" stop-color="#0CC6C9"/><stop offset="0.338235" stop-color="#0CC7CB"/><stop offset="0.352941" stop-color="#0CC8CC"/><stop offset="0.367647" stop-color="#0CC9CD"/><stop offset="0.382353" stop-color="#0CCACF"/><stop offset="0.397059" stop-color="#0CCBD0"/><stop offset="0.411765" stop-color="#0CCCD1"/><stop offset="0.426471" stop-color="#0CCCD2"/><stop offset="0.441176" stop-color="#0CCDD3"/><stop offset="0.455882" stop-color="#0BCED4"/><stop offset="0.470588" stop-color="#0BCFD6"/><stop offset="0.485294" stop-color="#0BD0D7"/><stop offset="0.5" stop-color="#0BD1D8"/><stop offset="0.514706" stop-color="#0BD2D9"/><stop offset="0.529412" stop-color="#0BD2DA"/><stop offset="0.544118" stop-color="#0BD3DB"/><stop offset="0.558824" stop-color="#0AD4DC"/><stop offset="0.573529" stop-color="#0AD5DD"/><stop offset="0.588235" stop-color="#0AD5DD"/><stop offset="0.602941" stop-color="#0AD6DE"/><stop offset="0.617647" stop-color="#0AD7DF"/><stop offset="0.632353" stop-color="#0AD7E0"/><stop offset="0.647059" stop-color="#0AD8E1"/><stop offset="0.661765" stop-color="#09D8E1"/><stop offset="0.676471" stop-color="#09D9E2"/><stop offset="0.691176" stop-color="#09DAE3"/><stop offset="0.705882" stop-color="#09DAE4"/><stop offset="0.720588" stop-color="#09DBE4"/><stop offset="0.735294" stop-color="#08DBE5"/><stop offset="0.75" stop-color="#08DBE5"/><stop offset="0.764706" stop-color="#08DCE6"/><stop offset="0.779412" stop-color="#08DCE6"/><stop offset="0.794118" stop-color="#08DDE7"/><stop offset="0.808824" stop-color="#07DDE7"/><stop offset="0.823529" stop-color="#07DDE8"/><stop offset="0.838235" stop-color="#07DEE8"/><stop offset="0.852941" stop-color="#07DEE9"/><stop offset="0.867647" stop-color="#07DEE9"/><stop offset="0.882353" stop-color="#06DFE9"/><stop offset="0.897059" stop-color="#06DFEA"/><stop offset="0.911765" stop-color="#06DFEA"/><stop offset="0.926471" stop-color="#06DFEA"/><stop offset="0.941176" stop-color="#05DFEA"/><stop offset="0.955882" stop-color="#05DFEA"/><stop offset="0.970588" stop-color="#05DFEA"/><stop offset="0.985294" stop-color="#05DFEA"/><stop offset="1" stop-color="#05E0EB"/></linearGradient><linearGradient x1="2948.4" y1="992.241" x2="2948.4" y2="1509.81" gradientUnits="userSpaceOnUse" spreadMethod="reflect" id="fill7"><stop offset="0" stop-color="#0EAAA6"/><stop offset="0.0147059" stop-color="#0DABA7"/><stop offset="0.0294118" stop-color="#0DACA9"/><stop offset="0.0441176" stop-color="#0DAEAB"/><stop offset="0.0588235" stop-color="#0DAFAD"/><stop offset="0.0735294" stop-color="#0DB1AF"/><stop offset="0.0882353" stop-color="#0DB2B0"/><stop offset="0.102941" stop-color="#0DB3B2"/><stop offset="0.117647" stop-color="#0DB5B4"/><stop offset="0.132353" stop-color="#0DB6B6"/><stop offset="0.147059" stop-color="#0DB7B7"/><stop offset="0.161765" stop-color="#0DB9B9"/><stop offset="0.176471" stop-color="#0DBABB"/><stop offset="0.191176" stop-color="#0DBBBC"/><stop offset="0.205882" stop-color="#0DBCBE"/><stop offset="0.220588" stop-color="#0DBEBF"/><stop offset="0.235294" stop-color="#0DBFC1"/><stop offset="0.25" stop-color="#0DC0C2"/><stop offset="0.264706" stop-color="#0DC1C4"/><stop offset="0.279412" stop-color="#0DC2C5"/><stop offset="0.294118" stop-color="#0DC3C7"/><stop offset="0.308824" stop-color="#0DC4C8"/><stop offset="0.323529" stop-color="#0CC6C9"/><stop offset="0.338235" stop-color="#0CC7CB"/><stop offset="0.352941" stop-color="#0CC8CC"/><stop offset="0.367647" stop-color="#0CC9CD"/><stop offset="0.382353" stop-color="#0CCACF"/><stop offset="0.397059" stop-color="#0CCBD0"/><stop offset="0.411765" stop-color="#0CCCD1"/><stop offset="0.426471" stop-color="#0CCCD2"/><stop offset="0.441176" stop-color="#0CCDD3"/><stop offset="0.455882" stop-color="#0BCED4"/><stop offset="0.470588" stop-color="#0BCFD6"/><stop offset="0.485294" stop-color="#0BD0D7"/><stop offset="0.5" stop-color="#0BD1D8"/><stop offset="0.514706" stop-color="#0BD2D9"/><stop offset="0.529412" stop-color="#0BD2DA"/><stop offset="0.544118" stop-color="#0BD3DB"/><stop offset="0.558824" stop-color="#0AD4DC"/><stop offset="0.573529" stop-color="#0AD5DD"/><stop offset="0.588235" stop-color="#0AD5DD"/><stop offset="0.602941" stop-color="#0AD6DE"/><stop offset="0.617647" stop-color="#0AD7DF"/><stop offset="0.632353" stop-color="#0AD7E0"/><stop offset="0.647059" stop-color="#0AD8E1"/><stop offset="0.661765" stop-color="#09D8E1"/><stop offset="0.676471" stop-color="#09D9E2"/><stop offset="0.691176" stop-color="#09DAE3"/><stop offset="0.705882" stop-color="#09DAE4"/><stop offset="0.720588" stop-color="#09DBE4"/><stop offset="0.735294" stop-color="#08DBE5"/><stop offset="0.75" stop-color="#08DBE5"/><stop offset="0.764706" stop-color="#08DCE6"/><stop offset="0.779412" stop-color="#08DCE6"/><stop offset="0.794118" stop-color="#08DDE7"/><stop offset="0.808824" stop-color="#07DDE7"/><stop offset="0.823529" stop-color="#07DDE8"/><stop offset="0.838235" stop-color="#07DEE8"/><stop offset="0.852941" stop-color="#07DEE9"/><stop offset="0.867647" stop-color="#07DEE9"/><stop offset="0.882353" stop-color="#06DFE9"/><stop offset="0.897059" stop-color="#06DFEA"/><stop offset="0.911765" stop-color="#06DFEA"/><stop offset="0.926471" stop-color="#06DFEA"/><stop offset="0.941176" stop-color="#05DFEA"/><stop offset="0.955882" stop-color="#05DFEA"/><stop offset="0.970588" stop-color="#05DFEA"/><stop offset="0.985294" stop-color="#05DFEA"/><stop offset="1" stop-color="#05E0EB"/></linearGradient><linearGradient x1="2948.4" y1="992.241" x2="2948.4" y2="1509.81" gradientUnits="userSpaceOnUse" spreadMethod="reflect" id="fill8"><stop offset="0" stop-color="#0EAAA6"/><stop offset="0.0147059" stop-color="#0DABA7"/><stop offset="0.0294118" stop-color="#0DACA9"/><stop offset="0.0441176" stop-color="#0DAEAB"/><stop offset="0.0588235" stop-color="#0DAFAD"/><stop offset="0.0735294" stop-color="#0DB1AF"/><stop offset="0.0882353" stop-color="#0DB2B0"/><stop offset="0.102941" stop-color="#0DB3B2"/><stop offset="0.117647" stop-color="#0DB5B4"/><stop offset="0.132353" stop-color="#0DB6B6"/><stop offset="0.147059" stop-color="#0DB7B7"/><stop offset="0.161765" stop-color="#0DB9B9"/><stop offset="0.176471" stop-color="#0DBABB"/><stop offset="0.191176" stop-color="#0DBBBC"/><stop offset="0.205882" stop-color="#0DBCBE"/><stop offset="0.220588" stop-color="#0DBEBF"/><stop offset="0.235294" stop-color="#0DBFC1"/><stop offset="0.25" stop-color="#0DC0C2"/><stop offset="0.264706" stop-color="#0DC1C4"/><stop offset="0.279412" stop-color="#0DC2C5"/><stop offset="0.294118" stop-color="#0DC3C7"/><stop offset="0.308824" stop-color="#0DC4C8"/><stop offset="0.323529" stop-color="#0CC6C9"/><stop offset="0.338235" stop-color="#0CC7CB"/><stop offset="0.352941" stop-color="#0CC8CC"/><stop offset="0.367647" stop-color="#0CC9CD"/><stop offset="0.382353" stop-color="#0CCACF"/><stop offset="0.397059" stop-color="#0CCBD0"/><stop offset="0.411765" stop-color="#0CCCD1"/><stop offset="0.426471" stop-color="#0CCCD2"/><stop offset="0.441176" stop-color="#0CCDD3"/><stop offset="0.455882" stop-color="#0BCED4"/><stop offset="0.470588" stop-color="#0BCFD6"/><stop offset="0.485294" stop-color="#0BD0D7"/><stop offset="0.5" stop-color="#0BD1D8"/><stop offset="0.514706" stop-color="#0BD2D9"/><stop offset="0.529412" stop-color="#0BD2DA"/><stop offset="0.544118" stop-color="#0BD3DB"/><stop offset="0.558824" stop-color="#0AD4DC"/><stop offset="0.573529" stop-color="#0AD5DD"/><stop offset="0.588235" stop-color="#0AD5DD"/><stop offset="0.602941" stop-color="#0AD6DE"/><stop offset="0.617647" stop-color="#0AD7DF"/><stop offset="0.632353" stop-color="#0AD7E0"/><stop offset="0.647059" stop-color="#0AD8E1"/><stop offset="0.661765" stop-color="#09D8E1"/><stop offset="0.676471" stop-color="#09D9E2"/><stop offset="0.691176" stop-color="#09DAE3"/><stop offset="0.705882" stop-color="#09DAE4"/><stop offset="0.720588" stop-color="#09DBE4"/><stop offset="0.735294" stop-color="#08DBE5"/><stop offset="0.75" stop-color="#08DBE5"/><stop offset="0.764706" stop-color="#08DCE6"/><stop offset="0.779412" stop-color="#08DCE6"/><stop offset="0.794118" stop-color="#08DDE7"/><stop offset="0.808824" stop-color="#07DDE7"/><stop offset="0.823529" stop-color="#07DDE8"/><stop offset="0.838235" stop-color="#07DEE8"/><stop offset="0.852941" stop-color="#07DEE9"/><stop offset="0.867647" stop-color="#07DEE9"/><stop offset="0.882353" stop-color="#06DFE9"/><stop offset="0.897059" stop-color="#06DFEA"/><stop offset="0.911765" stop-color="#06DFEA"/><stop offset="0.926471" stop-color="#06DFEA"/><stop offset="0.941176" stop-color="#05DFEA"/><stop offset="0.955882" stop-color="#05DFEA"/><stop offset="0.970588" stop-color="#05DFEA"/><stop offset="0.985294" stop-color="#05DFEA"/><stop offset="1" stop-color="#05E0EB"/></linearGradient></defs><g clip-path="url(#clip0)"><rect x="0" y="0" width="720" height="720" fill="#FFFFFF"/><path d="M0 360C-4.58328e-14 161.177 161.177-4.58328e-14 360-9.16656e-14 558.823-1.83331e-13 720 161.177 720 360 720 558.823 558.823 720 360 720 161.177 720-2.29164e-13 558.823 0 360Z" fill="url(#fill1)" fill-rule="evenodd"/><g clip-path="url(#clip2)"><g clip-path="url(#clip3)"><g clip-path="url(#clip4)"><g clip-path="url(#clip5)"><path d="M2760.79 1238.81C2691.5 1281.77 2656.85 1310.5 2656.85 1325.01 2656.85 1328.1 2659.28 1329.65 2664.14 1329.65 2669 1329.65 2675.37 1327.19 2683.26 1322.26 2691.15 1317.33 2698.58 1311.55 2705.55 1304.94 2712.52 1298.32 2719.95 1290.36 2727.84 1281.06 2739.24 1267.55 2750.23 1253.46 2760.79 1238.81ZM2986.2 928.265C2991.55 928.265 2996.2 929.956 3000.14 933.336 3004.09 936.716 3006.06 940.307 3006.06 944.112 3006.06 947.913 3005.78 950.589 3005.21 952.138 3004.65 953.687 3002.12 957.702 2997.61 964.18 2993.1 970.657 2988.53 976.925 2983.88 982.982 2971.06 999.6 2960.15 1013.9 2951.13 1025.87 2942.12 1037.84 2908.53 1085.3 2850.37 1168.25 2855.57 1165.72 2862.86 1162.58 2872.23 1158.85 2881.59 1155.12 2887.55 1153.26 2890.08 1153.26 2891.91 1153.26 2892.83 1154.24 2892.83 1156.21 2892.83 1158.19 2892.33 1160.23 2891.35 1162.34 2890.36 1164.45 2889.34 1166.28 2888.28 1167.83 2887.23 1169.38 2885.85 1171.28 2884.16 1173.53L2880.99 1177.76C2874.23 1187.34 2864.52 1195.3 2851.84 1201.63 2847.48 1203.89 2841.17 1206.84 2832.93 1210.5 2824.7 1214.17 2818.96 1216.84 2815.72 1218.53L2804.52 1235.43C2780.72 1270.64 2760.83 1297.05 2744.84 1314.66 2728.85 1332.26 2714.07 1345.01 2700.48 1352.89 2686.89 1360.78 2671.08 1364.72 2653.05 1364.72 2644.32 1364.72 2637.73 1360.95 2633.3 1353.42 2628.86 1345.88 2626.64 1337.43 2626.64 1328.07 2626.64 1318.7 2629.57 1309.02 2635.41 1299.02 2641.26 1289.02 2649.32 1279.48 2659.6 1270.4 2669.88 1261.31 2680.66 1252.72 2691.92 1244.62 2703.19 1236.52 2715.65 1228.67 2729.32 1221.07 2751.43 1209.1 2772.9 1198.32 2793.75 1188.75 2845.01 1113.26 2897.05 1040.09 2949.86 969.25 2950.99 968.126 2951.55 967.281 2951.55 966.715 2951.55 966.153 2949.44 965.87 2945.22 965.87 2940.99 965.87 2931.56 967.281 2916.91 970.095 2884.94 976.573 2853.18 988.299 2821.63 1005.27 2790.08 1022.24 2763.05 1041.68 2740.51 1063.58 2717.98 1085.48 2706.71 1103.26 2706.71 1116.92 2706.71 1123.82 2709.67 1129.49 2715.58 1133.92 2721.5 1138.36 2727.87 1140.58 2734.7 1140.58 2741.53 1140.58 2748.57 1138.85 2755.82 1135.4 2763.08 1131.95 2769.1 1128.5 2773.89 1125.05 2778.68 1121.6 2781.42 1119.88 2782.13 1119.88 2782.83 1119.88 2783.18 1120.86 2783.18 1122.83 2783.18 1133.12 2780.47 1141.95 2775.05 1149.35 2769.63 1156.74 2762.13 1162.27 2752.55 1165.93 2742.97 1169.59 2733.78 1171.42 2724.99 1171.42 2716.18 1171.42 2707.2 1169.59 2698.05 1165.93 2688.89 1162.27 2681.11 1156.56 2674.7 1148.82 2668.3 1141.07 2665.09 1132.27 2665.09 1122.41 2665.09 1118.19 2666.01 1113.19 2667.84 1107.41 2681.78 1062.06 2727.34 1018.33 2804.52 976.221 2831 961.859 2860.61 950.274 2893.36 941.471 2926.1 932.669 2957.05 928.265 2986.2 928.265Z" fill="url(#fill6)" fill-rule="evenodd" transform="matrix(1 0 0 1.00043 -2538.78 -838.181)"/><path d="M2994.19 1084.3C3025.39 1084.3 3051.48 1090.38 3072.46 1102.57 3093.45 1114.75 3103.94 1128.62 3103.94 1144.18 3103.94 1159.75 3098.48 1175.56 3087.57 1191.61 3076.65 1207.67 3062.99 1221.64 3046.58 1233.55 3030.17 1245.45 3011.97 1255.2 2991.98 1262.81 2971.98 1270.41 2954.09 1274.21 2938.31 1274.21 2922.54 1274.21 2910.29 1267.88 2901.56 1255.2 2880.15 1288.86 2865.64 1311.85 2858.04 1324.17 2850.43 1336.5 2843.99 1346.85 2838.71 1355.23 2833.43 1363.61 2829.34 1370.19 2826.46 1374.98 2823.57 1379.77 2822.05 1382.23 2821.91 1382.38 2818.96 1385.62 2815.79 1387.24 2812.41 1387.24L2802.05 1389.14 2796.98 1388.71 2793.39 1388.71C2785.08 1388.71 2780.93 1386.11 2780.93 1380.9 2780.93 1374.28 2794.8 1349.35 2822.55 1306.11 2850.29 1262.88 2876.45 1223.65 2901.03 1188.44 2925.61 1153.23 2939.94 1133.45 2944.02 1129.08 2948.1 1124.71 2951.73 1122.14 2954.9 1121.37 2958.07 1120.59 2963.17 1120.21 2970.21 1120.21L2980.78 1120.21C2982.61 1120.21 2983.53 1121.65 2983.53 1124.54 2983.53 1127.43 2983.17 1129.43 2982.47 1130.56 2970.07 1147.88 2947.68 1182.11 2915.29 1233.23 2916.42 1235.48 2918.28 1236.89 2920.89 1237.45 2923.49 1238.02 2926.27 1238.3 2929.23 1238.3L2935.36 1238.3C2948.31 1238.3 2962.33 1235.17 2977.4 1228.9 2992.47 1222.63 3005.7 1215.13 3017.11 1206.4 3028.52 1197.67 3038.06 1188.55 3045.74 1179.04 3053.41 1169.54 3057.25 1161.4 3057.25 1154.64 3057.25 1147.88 3055.14 1141.83 3050.91 1136.47 3046.69 1131.12 3040.91 1126.9 3033.59 1123.8 3019.22 1117.74 3001.8 1114.71 2981.31 1114.71 2960.81 1114.71 2936.09 1120.03 2907.16 1130.67 2878.21 1141.3 2857.12 1151.68 2843.88 1161.82 2839.24 1165.21 2836.91 1168.97 2836.91 1173.13 2836.91 1177.28 2840.01 1179.36 2846.21 1179.36 2848.88 1179.36 2852.33 1178.58 2856.56 1177.04L2856.77 1177.04C2857.47 1177.04 2857.83 1178.48 2857.83 1181.37 2857.83 1184.25 2857.55 1185.98 2856.98 1186.54 2842.48 1196.82 2830.22 1201.96 2820.22 1201.96 2810.22 1201.96 2802.97 1199.15 2798.46 1193.51 2793.96 1187.88 2791.7 1180.52 2791.7 1171.44 2791.7 1162.35 2796.7 1152.71 2806.7 1142.49 2816.7 1132.28 2830.15 1122.85 2847.05 1114.19 2863.95 1105.52 2884.9 1098.38 2909.9 1092.75 2934.9 1087.11 2963 1084.3 2994.19 1084.3Z" fill="url(#fill7)" fill-rule="evenodd" transform="matrix(1 0 0 1.00043 -2538.78 -838.181)"/><path d="M3178.47 1208.09C3194.1 1208.09 3203.75 1211.47 3207.41 1218.23 3208.54 1220.63 3209.1 1223.3 3209.1 1226.26L3209.1 1227.74C3209.1 1235.2 3207.52 1241.04 3204.35 1245.27 3201.18 1249.5 3196.18 1253.3 3189.35 1256.68 3182.52 1260.06 3177.09 1261.75 3173.08 1261.75 3169.07 1261.75 3166.53 1261.47 3165.48 1260.9 3164.42 1260.34 3163.54 1259.6 3162.84 1258.69 3162.13 1257.77 3161.25 1257.1 3160.2 1256.68 3159.14 1256.26 3158.61 1255.2 3158.61 1253.51 3158.61 1251.82 3159.32 1250.09 3160.72 1248.33 3162.13 1246.57 3163.12 1244.71 3163.68 1242.73 3154.39 1243.16 3144.67 1245.31 3134.53 1249.18 3124.39 1253.05 3115.69 1257.38 3108.44 1262.17 3101.19 1266.96 3095.17 1271.54 3090.37 1275.9 3085.59 1280.27 3083.19 1283.47 3083.19 1285.51 3083.19 1287.56 3086.43 1289.21 3092.91 1290.48 3122.06 1296.25 3141.22 1301.25 3150.37 1305.48 3159.53 1309.7 3165.87 1314.49 3169.38 1319.84 3172.91 1325.2 3174.67 1330.05 3174.67 1334.42 3174.67 1343.43 3171.08 1351.95 3163.89 1359.98 3156.71 1368.01 3147.84 1374.56 3137.27 1379.63 3114.6 1390.75 3094.85 1396.32 3078.02 1396.32 3061.19 1396.32 3049.57 1393.75 3043.16 1388.61 3036.75 1383.47 3033.55 1377.37 3033.55 1370.33 3033.55 1363.29 3035.34 1356.78 3038.94 1350.79 3042.53 1344.81 3047.14 1341.82 3052.77 1341.82 3058.41 1341.82 3061.22 1343.29 3061.22 1346.25L3061.01 1349.63C3061.01 1353.15 3062.35 1356.18 3065.03 1358.71 3067.7 1361.25 3070.16 1362.52 3072.42 1362.52 3089.32 1362.52 3104.28 1359.98 3117.31 1354.91 3130.34 1349.84 3136.85 1344.77 3136.85 1339.7 3136.85 1337.31 3134.49 1335.23 3129.77 1333.47 3125.06 1331.71 3117.1 1329.53 3105.91 1326.92 3094.7 1324.32 3086.57 1322.27 3081.5 1320.79 3076.43 1319.31 3072.42 1317.94 3069.46 1316.67 3066.51 1315.41 3063.48 1313.65 3060.38 1311.39 3053.76 1306.75 3050.45 1299.81 3050.45 1290.59 3050.45 1281.36 3053.87 1272.21 3060.69 1263.12 3067.52 1254.04 3076.08 1246.26 3086.36 1239.78 3096.64 1233.3 3107.7 1227.6 3119.53 1222.67 3142.91 1212.95 3162.55 1208.09 3178.47 1208.09Z" fill="url(#fill8)" fill-rule="evenodd" transform="matrix(1 0 0 1.00043 -2538.78 -838.181)"/><path d="M2867.23 1170.56C2867.23 1170.56 2865.04 1189.05 2847.21 1184.37 2843.68 1186.13 2842.71 1183.43 2846.04 1181.12 2849.38 1178.82 2867.04 1170.02 2867.23 1170.56Z" fill="#0DC9CE" fill-rule="evenodd" transform="matrix(1 0 0 1.00043 -2538.78 -838.181)"/></g></g></g></g></g></svg>